<?xml version="1.0" standalone="yes"?>
<svg width="340" height="123">
<path style="fill:#000000; stroke:none;" d="M0 0L0 123L340 123L340 0L0 0z"/>
<path style="fill:#a0b3c1; stroke:none;" d="M39 22L39 93L40 93L40 44L39 22z"/>
<path style="fill:#e4f0f6; stroke:none;" d="M40 22L40 92L110 92L110 22L40 22z"/>
<path style="fill:#788f9f; stroke:none;" d="M110 22L110 93L111 93L111 44L110 22z"/>
<path style="fill:#aab8c1; stroke:none;" d="M43 25L43 26L107 26L87 25L43 25z"/>
<path style="fill:#c6d9e2; stroke:none;" d="M42 26L42 89L43 89L43 46L42 26z"/>
<path style="fill:#274655; stroke:none;" d="M43 26L43 89L44 89L44 46L43 26z"/>
<path style="fill:#000000; stroke:none;" d="M44 26L44 89L106 89L106 26L44 26z"/>
<path style="fill:#546978; stroke:none;" d="M106 26L106 89L107 89L107 46L106 26z"/>
<path style="fill:#324559; stroke:none;" d="M148 28L148 31L149 31L148 28z"/>
<path style="fill:#132639; stroke:none;" d="M177 47L171 42L177 60L173 60L173 61L178 61L177 55C187.478 64.9073 200.235 62.0863 214 61C214.516 57.2713 217.167 48.8532 222.437 53.608C224.592 55.5528 224.273 59.2616 226.703 60.9329C228.832 62.3968 232.612 61.1867 235 61C233.725 51.5325 230.575 41.5568 226.29 33.0193C223.886 28.2294 218.662 26.1901 215 31C227.251 27.2505 231.6 50.4854 233 60C227.199 59.5577 225.503 56.5421 225 51L214 51C213.244 56.4657 211.838 59.5547 206 60L205 46L191 46L191 52L196 52L196 54C175.353 53.3281 194.806 25.7222 196 42L204 41L204 28C188.342 28 178.416 29.0772 177 47z"/>
<path style="fill:#5e7b96; stroke:none;" d="M122 32L123 32L125 30C122.86 28.8822 122.473 29.7492 122 32z"/>
<path style="fill:#c2c0c3; stroke:none;" d="M125 29L125 30L129 30L125 29z"/>
<path style="fill:#3a3337; stroke:none;" d="M129.333 29.6667L129.667 30.3333L129.333 29.6667z"/>
<path style="fill:#697782; stroke:none;" d="M142 29L142 30L145 30L142 29z"/>
<path style="fill:#afbbcb; stroke:none;" d="M145 29L145 30L148 30L145 29z"/>
<path style="fill:#8698a3; stroke:none;" d="M162 29L162 30L166 30L162 29z"/>
<path style="fill:#a6b5c7; stroke:none;" d="M189 29L189 30L196 30L189 29z"/>
<path style="fill:#8490a7; stroke:none;" d="M200.667 29.3333L201.333 29.6667L200.667 29.3333z"/>
<path style="fill:#657782; stroke:none;" d="M219 29L219 30L223 30L219 29z"/>
<path style="fill:#f8ffff; stroke:none;" d="M123 30C124.327 39.8536 127.086 59.858 139 60L148 30C137.781 30.3398 138.966 46.4443 135 54L129 30L123 30z"/>
<path style="fill:#5087aa; stroke:none;" d="M141.333 30.6667L141.667 31.3333L141.333 30.6667z"/>
<path style="fill:#3b6280; stroke:none;" d="M159 30L160 31L159 30z"/>
<path style="fill:#fdfffb; stroke:none;" d="M150 60C155.586 59.5546 156.313 56.0672 157 51C165.021 51.0009 168.343 51.6142 170 60L176 60C175.723 53.9438 170.641 28.7569 162.093 30.3765C154.91 31.7374 150.506 53.8159 150 60z"/>
<path style="fill:#545e6c; stroke:none;" d="M166 30L167 31L166 30z"/>
<path style="fill:#f4ffff; stroke:none;" d="M203 61L203 47L192 47L192 50L198 50L198 55C195.474 55.1904 192.444 55.9851 190.043 54.8827C174.642 47.8102 193.32 23.5257 198 40L202 40L202 30C196.522 30 188.847 28.6139 184.108 31.8935C177.09 36.7495 176.467 53.8416 183.34 59.1065C188.65 63.1736 196.859 59.6192 203 61z"/>
<path style="fill:#50485a; stroke:none;" d="M202 30L202 34L203 34L202 30z"/>
<path style="fill:#f0ffff; stroke:none;" d="M216 30L206 60L212 60C213.745 51.6876 217.04 51.0009 225 51L227 60L233 60C231.052 49.9874 228.193 30.1445 216 30z"/>
<path style="fill:#b4b4a4; stroke:none;" d="M129 31L129 34L130 34L129 31z"/>
<path style="fill:#9c988f; stroke:none;" d="M147.333 31.6667L147.667 32.3333L147.333 31.6667z"/>
<path style="fill:#7795ab; stroke:none;" d="M184 31L185 32L184 31z"/>
<path style="fill:#103560; stroke:none;" d="M214 31L210 44L211 44L216 31L214 31z"/>
<path style="fill:#47414a; stroke:none;" d="M167 32L168 35L169 35L169 32L167 32z"/>
<path style="fill:#5c90b1; stroke:none;" d="M215 32L216 33L215 32z"/>
<path style="fill:#3a6d8a; stroke:none;" d="M123 33L123 36L124 36L123 33z"/>
<path style="fill:#6b6567; stroke:none;" d="M130.333 34.6667L130.667 35.3333L130.333 34.6667z"/>
<path style="fill:#9a9185; stroke:none;" d="M202 34L202 40L203 40L202 34z"/>
<path style="fill:#73a0ba; stroke:none;" d="M140.333 35.6667L140.667 36.3333L140.333 35.6667z"/>
<path style="fill:#5b86b0; stroke:none;" d="M157 35L158 36L157 35z"/>
<path style="fill:#46484f; stroke:none;" d="M146.333 36.6667L146.667 37.3333L146.333 36.6667z"/>
<path style="fill:#b9c2cf; stroke:none;" d="M162.667 36.3333L163.333 36.6667L162.667 36.3333z"/>
<path style="fill:#8c8687; stroke:none;" d="M186 36L187 37L186 36z"/>
<path style="fill:#8cbdd7; stroke:none;" d="M197 36L197 39L198 39L197 36z"/>
<path style="fill:#002641; stroke:none;" d="M219 36L216 47L223 47L219 36z"/>
<path style="fill:#295c85; stroke:none;" d="M124 37L124 40L125 40L124 37z"/>
<path style="fill:#4a799a; stroke:none;" d="M156 37L157 38L156 37z"/>
<path style="fill:#607386; stroke:none;" d="M162.667 37.3333L163.333 37.6667L162.667 37.3333z"/>
<path style="fill:#53493d; stroke:none;" d="M131.333 38.6667L131.667 39.3333L131.333 38.6667z"/>
<path style="fill:#000000; stroke:none;" d="M162 38L162 40L164 38L162 38z"/>
<path style="fill:#45454e; stroke:none;" d="M170.333 38.6667L170.667 39.3333L170.333 38.6667z"/>
<path style="fill:#87807e; stroke:none;" d="M226 38L227 39L226 38z"/>
<path style="fill:#578fae; stroke:none;" d="M139.333 39.6667L139.667 40.3333L139.333 39.6667z"/>
<path style="fill:#746d63; stroke:none;" d="M145 39L145 42L146 42L145 39z"/>
<path style="fill:#002060; stroke:none;" d="M161 39L165 41L165 40L161 39z"/>
<path style="fill:#4e8090; stroke:none;" d="M197 39L200 41L200 40L197 39z"/>
<path style="fill:#c7bdb3; stroke:none;" d="M131.333 40.6667L131.667 41.3333L131.333 40.6667z"/>
<path style="fill:#e7dbce; stroke:none;" d="M184 40L184 49L185 49L184 40z"/>
<path style="fill:#104060; stroke:none;" d="M125.333 41.6667L125.667 42.3333L125.333 41.6667z"/>
<path style="fill:#000000; stroke:none;" d="M161 41L160 47C163.795 46.1728 164.696 44.8285 165 41L161 41M219 41L218 46C221.345 45.2796 221.036 43.3319 219 41z"/>
<path style="fill:#4a4548; stroke:none;" d="M132 42L132 44L134 44L132 42z"/>
<path style="fill:#8fc0d6; stroke:none;" d="M154.333 42.6667L154.667 43.3333L154.333 42.6667z"/>
<path style="fill:#313a3f; stroke:none;" d="M160 42L160 45L161 45L160 42z"/>
<path style="fill:#6498b2; stroke:none;" d="M138.333 43.6667L138.667 44.3333L138.333 43.6667z"/>
<path style="fill:#42474f; stroke:none;" d="M144 43L144 46L145 46L144 43z"/>
<path style="fill:#003955; stroke:none;" d="M165 43L163 46L163 47C165.649 46.4324 166.355 45.4122 165 43z"/>
<path style="fill:#2c7594; stroke:none;" d="M178 43L178 50L179 50L178 43z"/>
<path style="fill:#878383; stroke:none;" d="M216.333 43.6667L216.667 44.3333L216.333 43.6667z"/>
<path style="fill:#598aa6; stroke:none;" d="M222.333 43.6667L222.667 44.3333L222.333 43.6667z"/>
<path style="fill:#c3bfbb; stroke:none;" d="M228.333 43.6667L228.667 44.3333L228.333 43.6667z"/>
<path style="fill:#4b6272; stroke:none;" d="M65 44L65 45L85 45L65 44z"/>
<path style="fill:#24496d; stroke:none;" d="M126.333 44.6667L126.667 45.3333L126.333 44.6667z"/>
<path style="fill:#c8beb2; stroke:none;" d="M132.333 44.6667L132.667 45.3333L132.333 44.6667z"/>
<path style="fill:#003355; stroke:none;" d="M209 44L208 50L209 50L209 44z"/>
<path style="fill:#9ac7e0; stroke:none;" d="M210.333 44.6667L210.667 45.3333L210.333 44.6667z"/>
<path style="fill:#eaeff2; stroke:none;" d="M65 45C63.1981 54.2862 59.6443 60.6049 63 70L68 70L68 67L82 67L82 70L87 70C90.6312 59.8335 85.5052 54.7169 85 45L65 45z"/>
<path style="fill:#93bde6; stroke:none;" d="M153.333 45.6667L153.667 46.3333L153.333 45.6667z"/>
<path style="fill:#5a4242; stroke:none;" d="M159.333 45.6667L159.667 46.3333L159.333 45.6667z"/>
<path style="fill:#5a6b79; stroke:none;" d="M64.3333 46.6667L64.6667 47.3333L64.3333 46.6667z"/>
<path style="fill:#3d5563; stroke:none;" d="M85.3333 46.6667L85.6667 47.3333L85.3333 46.6667z"/>
<path style="fill:#584242; stroke:none;" d="M143.333 46.6667L143.667 47.3333L143.333 46.6667z"/>
<path style="fill:#9cb2cb; stroke:none;" d="M166 46L159 47L159 48L166 46z"/>
<path style="fill:#a1b2cb; stroke:none;" d="M215 46C217.347 48.686 221.653 48.686 224 46L215 46z"/>
<path style="fill:#bab7a7; stroke:none;" d="M229.333 46.6667L229.667 47.3333L229.333 46.6667z"/>
<path style="fill:#33527a; stroke:none;" d="M127 47L127 50L128 50L127 47z"/>
<path style="fill:#7daedb; stroke:none;" d="M137.333 47.6667L137.667 48.3333L137.333 47.6667z"/>
<path style="fill:#9a8b7b; stroke:none;" d="M203 47L203 51L204 51L203 47z"/>
<path style="fill:#7d8b9a; stroke:none;" d="M85 48L85 51L86 51L85 48z"/>
<path style="fill:#8ebaca; stroke:none;" d="M152.333 48.6667L152.667 49.3333L152.333 48.6667z"/>
<path style="fill:#b8b4a6; stroke:none;" d="M173.333 48.6667L173.667 49.3333L173.333 48.6667z"/>
<path style="fill:#000000; stroke:none;" d="M176 48L177 54L178 54L176 48z"/>
<path style="fill:#3c5366; stroke:none;" d="M63.3333 49.6667L63.6667 50.3333L63.3333 49.6667z"/>
<path style="fill:#414449; stroke:none;" d="M142.333 49.6667L142.667 50.3333L142.333 49.6667z"/>
<path style="fill:#b3aaac; stroke:none;" d="M230.333 49.6667L230.667 50.3333L230.333 49.6667z"/>
<path style="fill:#2b4355; stroke:none;" d="M86 50L86 53L87 53L86 50z"/>
<path style="fill:#1c5571; stroke:none;" d="M128.333 50.6667L128.667 51.3333L128.333 50.6667z"/>
<path style="fill:#83a3b8; stroke:none;" d="M136.333 50.6667L136.667 51.3333L136.333 50.6667z"/>
<path style="fill:#3e70a2; stroke:none;" d="M151.333 50.6667L151.667 51.3333L151.333 50.6667z"/>
<path style="fill:#9eb8c5; stroke:none;" d="M192 50L192 51L198 51L192 50z"/>
<path style="fill:#002762; stroke:none;" d="M207 50L206 57L207 57L207 50z"/>
<path style="fill:#8ebbda; stroke:none;" d="M208.333 50.6667L208.667 51.3333L208.333 50.6667z"/>
<path style="fill:#8093a5; stroke:none;" d="M63.3333 51.6667L63.6667 52.3333L63.3333 51.6667z"/>
<path style="fill:#c1c4ca; stroke:none;" d="M134.333 51.6667L134.667 52.3333L134.333 51.6667z"/>
<path style="fill:#404040; stroke:none;" d="M157 51L157 56L158 56L157 51z"/>
<path style="fill:#33748f; stroke:none;" d="M197 51L197 55L198 55L197 51z"/>
<path style="fill:#644a48; stroke:none;" d="M203 51L203 58L204 58L203 51z"/>
<path style="fill:#42382e; stroke:none;" d="M141.333 52.6667L141.667 53.3333L141.333 52.6667z"/>
<path style="fill:#578cad; stroke:none;" d="M168.333 52.6667L168.667 53.3333L168.333 52.6667z"/>
<path style="fill:#2a2a55; stroke:none;" d="M62 53L60 54L60 55L62 53z"/>
<path style="fill:#0e3963; stroke:none;" d="M129.333 53.6667L129.667 54.3333L129.333 53.6667z"/>
<path style="fill:#67707b; stroke:none;" d="M135 53L136 54L135 53z"/>
<path style="fill:#928980; stroke:none;" d="M213.333 53.6667L213.667 54.3333L213.333 53.6667z"/>
<path style="fill:#000080; stroke:none;" d="M87.6667 54.3333L88.3333 54.6667L87.6667 54.3333z"/>
<path style="fill:#618faf; stroke:none;" d="M150.333 54.6667L150.667 55.3333L150.333 54.6667z"/>
<path style="fill:#a49c97; stroke:none;" d="M156.333 54.6667L156.667 55.3333L156.333 54.6667z"/>
<path style="fill:#00375b; stroke:none;" d="M168.333 54.6667L168.667 55.3333L168.333 54.6667z"/>
<path style="fill:#346891; stroke:none;" d="M225.333 54.6667L225.667 55.3333L225.333 54.6667z"/>
<path style="fill:#abc0ca; stroke:none;" d="M60 55L60 67L61 67L63 56L60 55z"/>
<path style="fill:#778c96; stroke:none;" d="M89 55L87 67L87 68C91.5105 67.0335 90.9117 58.318 89 55z"/>
<path style="fill:#3a3636; stroke:none;" d="M140 55L139 60L140 60L140 55z"/>
<path style="fill:#556d7b; stroke:none;" d="M189.667 55.3333L190.333 55.6667L189.667 55.3333z"/>
<path style="fill:#295a8c; stroke:none;" d="M130 56L131 57L130 56z"/>
<path style="fill:#2d363a; stroke:none;" d="M156.333 56.6667L156.667 57.3333L156.333 56.6667z"/>
<path style="fill:#bcbab5; stroke:none;" d="M232.333 56.6667L232.667 57.3333L232.333 56.6667z"/>
<path style="fill:#1a4f72; stroke:none;" d="M169 57L169 60L170 60L169 57z"/>
<path style="fill:#72a0bb; stroke:none;" d="M181 57L182 58L181 57z"/>
<path style="fill:#9bc2e7; stroke:none;" d="M206.333 57.6667L206.667 58.3333L206.333 57.6667z"/>
<path style="fill:#928a89; stroke:none;" d="M212.333 57.6667L212.667 58.3333L212.333 57.6667z"/>
<path style="fill:#6494b5; stroke:none;" d="M226.333 57.6667L226.667 58.3333L226.333 57.6667z"/>
<path style="fill:#003955; stroke:none;" d="M131.333 58.6667L131.667 59.3333L131.333 58.6667z"/>
<path style="fill:#7aa9c8; stroke:none;" d="M149.333 58.6667L149.667 59.3333L149.333 58.6667z"/>
<path style="fill:#99a2a7; stroke:none;" d="M155.333 58.6667L155.667 59.3333L155.333 58.6667z"/>
<path style="fill:#86909d; stroke:none;" d="M176.333 58.6667L176.667 59.3333L176.333 58.6667z"/>
<path style="fill:#99988b; stroke:none;" d="M203 58L203 61L204 61L203 58z"/>
<path style="fill:#adbdd6; stroke:none;" d="M132 60L132 61L135 61L132 60z"/>
<path style="fill:#646d85; stroke:none;" d="M135 60L135 61L138 61L135 60z"/>
<path style="fill:#42636f; stroke:none;" d="M149.667 60.3333L150.333 60.6667L149.667 60.3333z"/>
<path style="fill:#556b86; stroke:none;" d="M170.667 60.3333L171.333 60.6667L170.667 60.3333z"/>
<path style="fill:#8b8d8d; stroke:none;" d="M195 60L196 61L195 60z"/>
<path style="fill:#002e5c; stroke:none;" d="M273 86L274 86L283 66C276.717 64.6086 273.413 81.2704 273 86z"/>
<path style="fill:#1a2335; stroke:none;" d="M283 65L283 66C290.083 70.0817 291.903 82.609 294 90L288 86L287 86C287.802 90.8055 290.566 90.9474 295 91C294.838 83.3778 291.782 66.4326 283 65z"/>
<path style="fill:#0b293f; stroke:none;" d="M201 67L201 68L215 67L215 76L211 76C209.743 59.8662 193.224 86.4023 209 85.5656C211.038 85.4575 213.075 84.6088 215 84L215 89L200 89L200 90C204.961 91.4663 211.588 92.0144 216 89L217 89C221.17 93.7719 236.83 91 243 91L243 82L247 92C258.011 91.7329 254.585 79.5729 255 71L260 71L260 91L268 91C267.848 83.6179 263.398 71.8088 274 71L274 66L246 66.0108L236.028 67.6034L235 86L225 86L225 81L233 81L233 76L225 76L225 71L234 71L234 66L217 66L217 71L216 71L216 66L201 67z"/>
<path style="fill:#638091; stroke:none;" d="M281.667 66.3333L282.333 66.6667L281.667 66.3333z"/>
<path style="fill:#a8b2b5; stroke:none;" d="M283 66L283 67L286 67L283 66z"/>
<path style="fill:#445a6f; stroke:none;" d="M60 67L60 68L62 71L63 71L63 67L60 67z"/>
<path style="fill:#a8bcce; stroke:none;" d="M68 67L63 70L63 71L69 71L68 67z"/>
<path style="fill:#718a97; stroke:none;" d="M69 67L69 68L81 68L69 67z"/>
<path style="fill:#abc1d2; stroke:none;" d="M81 67L81 71L87 71L87 70L81 67z"/>
<path style="fill:#f2ffff; stroke:none;" d="M214 85C211.805 85.1534 209.191 85.7498 207.042 85.088C195.64 81.5759 207.583 63.7866 211 75L215 75L215 67C204.938 67 188.953 75.8409 200.434 87.6821C204.455 91.8296 212.967 90.9476 214 85z"/>
<path style="fill:#89c1d1; stroke:none;" d="M218 67L218 73L219 73L218 67z"/>
<path style="fill:#f0ffff; stroke:none;" d="M219 67L219 90L233 90L233 88L223 88L223 79L231 79L231 77L223 77L223 69L232 69L232 67L219 67z"/>
<path style="fill:#ccdee1; stroke:none;" d="M232 67L223 69L223 70C225.667 70 233.607 71.2643 232 67z"/>
<path style="fill:#fffcfa; stroke:none;" d="M237 67L237 90L241 90L241 81C246.351 81.8286 248.599 84.6826 249 90L253 90L250 79C259.617 68.7351 244.086 67 237 67z"/>
<path style="fill:#3e7796; stroke:none;" d="M254 67L254 70L255 70L254 67z"/>
<path style="fill:#c8dee8; stroke:none;" d="M255 67C255.729 70.4028 257.806 69.9865 261 70L261 69L255 67z"/>
<path style="fill:#fffef5; stroke:none;" d="M256 67L256 69C264.932 70.4245 262 83.083 262 90L266 90L265 70L273 70L273 67L256 67z"/>
<path style="fill:#f8feff; stroke:none;" d="M273 90L278 90C279.006 81.0757 286.922 82.1324 289 90L294 90C292.699 85.0945 290.142 68.1953 283.91 67.466C276.999 66.6574 274.003 85.1548 273 90z"/>
<path style="fill:#324f64; stroke:none;" d="M80 68L80 71L81 71L80 68z"/>
<path style="fill:#00355a; stroke:none;" d="M199 68C196.074 74.5839 193.24 84.823 201 89C196.665 80.515 197.163 76.1189 202 68L199 68z"/>
<path style="fill:#2f7aa4; stroke:none;" d="M236 68L236 73L237 73L236 68z"/>
<path style="fill:#7a8189; stroke:none;" d="M205 70L206 71L205 70z"/>
<path style="fill:#5a3d44; stroke:none;" d="M223 70L223 77L224 77L223 70z"/>
<path style="fill:#98987e; stroke:none;" d="M241 70L241 78L242 78L241 70z"/>
<path style="fill:#002758; stroke:none;" d="M242 70L242 78C248.58 76.6279 249.224 70.5629 242 70z"/>
<path style="fill:#96bdd8; stroke:none;" d="M261 70L261 80L262 80L261 70z"/>
<path style="fill:#e6e3dd; stroke:none;" d="M265 70L265 86L266 86L265 70z"/>
<path style="fill:#000000; stroke:none;" d="M217 84L217 76L210 77L209 71C204.864 73.1704 201.236 80.8372 207.228 83.6366C209.932 84.8994 214.007 83.5464 217 84M243 71L243 77L247 75L243 71z"/>
<path style="fill:#9fbed0; stroke:none;" d="M248 72L248 75L249 75L248 72z"/>
<path style="fill:#00254a; stroke:none;" d="M283 72L281 80L286 80L283 72z"/>
<path style="fill:#b1b9b1; stroke:none;" d="M288.333 72.6667L288.667 73.3333L288.333 72.6667z"/>
<path style="fill:#4892b0; stroke:none;" d="M218 73L218 81L219 81L218 73z"/>
<path style="fill:#aca593; stroke:none;" d="M202 74L202 77L203 77L202 74z"/>
<path style="fill:#92a2af; stroke:none;" d="M211.667 75.3333L212.333 75.6667L211.667 75.3333z"/>
<path style="fill:#515a69; stroke:none;" d="M213.667 75.3333L214.333 75.6667L213.667 75.3333z"/>
<path style="fill:#4296b8; stroke:none;" d="M197 76L197 82L198 82L197 76z"/>
<path style="fill:#7898ae; stroke:none;" d="M247 76L248 77L247 76z"/>
<path style="fill:#a0a09b; stroke:none;" d="M252 76L253 77L252 76z"/>
<path style="fill:#d2daee; stroke:none;" d="M231 77L223 79L223 80C225.616 80 232.541 81.0887 231 77z"/>
<path style="fill:#3b6892; stroke:none;" d="M285.333 77.6667L285.667 78.3333L285.333 77.6667z"/>
<path style="fill:#847876; stroke:none;" d="M250 79L251 80L250 79z"/>
<path style="fill:#b5aea5; stroke:none;" d="M202.333 80.6667L202.667 81.3333L202.333 80.6667z"/>
<path style="fill:#553745; stroke:none;" d="M223 80L223 87L224 87L223 80z"/>
<path style="fill:#b9e5ff; stroke:none;" d="M261 80L261 90L262 90L261 80z"/>
<path style="fill:#9ac4d8; stroke:none;" d="M218 81L218 90L219 90L218 81z"/>
<path style="fill:#bcaf96; stroke:none;" d="M241 81L241 90L242 90L241 81z"/>
<path style="fill:#30789f; stroke:none;" d="M236 83L236 90L237 90L236 83z"/>
<path style="fill:#0a2a39; stroke:none;" d="M279 83L278 90L273 90L273 86L272 86L272 91L286 86C287.458 82.1313 281.572 83.0017 279 83z"/>
<path style="fill:#4d6c72; stroke:none;" d="M213.667 84.3333L214.333 84.6667L213.667 84.3333z"/>
<path style="fill:#b9d5eb; stroke:none;" d="M248 84L248 90L249 90L248 84z"/>
<path style="fill:#2c6587; stroke:none;" d="M287.333 84.6667L287.667 85.3333L287.333 84.6667z"/>
<path style="fill:#c8bfb7; stroke:none;" d="M292.333 84.6667L292.667 85.3333L292.333 84.6667z"/>
<path style="fill:#aab7a6; stroke:none;" d="M214 85L214 89L215 89L214 85z"/>
<path style="fill:#9b9292; stroke:none;" d="M278.333 85.6667L278.667 86.3333L278.333 85.6667z"/>
<path style="fill:#6ca4c5; stroke:none;" d="M273.333 86.6667L273.667 87.3333L273.333 86.6667z"/>
<path style="fill:#ceddec; stroke:none;" d="M223 87L223 88L233 88L223 87z"/>
<path style="fill:#90978c; stroke:none;" d="M233 87L233 90L234 90L233 87z"/>
<path style="fill:#6494ba; stroke:none;" d="M288.333 87.6667L288.667 88.3333L288.333 87.6667z"/>
<path style="fill:#91a5b3; stroke:none;" d="M43 89L43 90L107 90L87 89L43 89z"/>
<path style="fill:#546772; stroke:none;" d="M248 90L248 91L252 91L248 90z"/>
<path style="fill:#c8d8e2; stroke:none;" d="M40 92L40 93L110 93L88 92L40 92z"/>
<path style="fill:#455b6a; stroke:none;" d="M39 93L39 94L111 94L88 93L39 93z"/>
</svg>
