<?xml version="1.0" encoding="UTF-8"?>
<!DOCTYPE svg PUBLIC "-//W3C//DTD SVG 1.1//EN" "http://www.w3.org/Graphics/SVG/1.1/DTD/svg11.dtd">
<svg xmlns="http://www.w3.org/2000/svg" version="1.1" width="339px" height="337px" style="shape-rendering:geometricPrecision; text-rendering:geometricPrecision; image-rendering:optimizeQuality; fill-rule:evenodd; clip-rule:evenodd" xmlns:xlink="http://www.w3.org/1999/xlink">
<g><path style="opacity:0.122" fill="#728897" d="M 10.5,5.5 C 11.8333,6.16667 11.8333,6.16667 10.5,5.5 Z"/></g>
<g><path style="opacity:0.324" fill="#698091" d="M 330.5,6.5 C 330.167,6.5 329.833,6.5 329.5,6.5C 329.167,6.5 328.833,6.5 328.5,6.5C 224.167,6.5 119.833,6.5 15.5,6.5C 18.8234,5.6382 22.3234,4.97153 26,4.5C 123.627,5.78524 221.294,5.78524 319,4.5C 323.042,4.76359 326.875,5.43026 330.5,6.5 Z"/></g>
<g><path style="opacity:0.999" fill="#e8eeef" d="M 15.5,6.5 C 119.833,6.5 224.167,6.5 328.5,6.5C 328.5,114.167 328.5,221.833 328.5,329.5C 221.5,329.5 114.5,329.5 7.5,329.5C 7.5,223.833 7.5,118.167 7.5,12.5C 10.0099,10.3235 12.6766,8.32353 15.5,6.5 Z M 311.5,25.5 C 311.831,121.237 311.497,216.904 310.5,312.5C 214.763,312.831 119.096,312.497 23.5,311.5C 23.5265,238.341 23.5265,165.341 23.5,92.5C 24.4975,70.0061 24.8308,47.3395 24.5,24.5C 120.335,24.1673 216.001,24.5006 311.5,25.5 Z"/></g>
<g><path style="opacity:0.698" fill="#8e9ba4" d="M 312.5,22.5 C 312.5,22.8333 312.5,23.1667 312.5,23.5C 216.167,23.5 119.833,23.5 23.5,23.5C 22.1667,119.833 22.1667,216.167 23.5,312.5C 23.5,312.833 23.5,313.167 23.5,313.5C 22.8333,313.5 22.1667,313.5 21.5,313.5C 21.5,216.5 21.5,119.5 21.5,22.5C 118.5,22.5 215.5,22.5 312.5,22.5 Z"/></g>
<g><path style="opacity:0.069" fill="#324c60" d="M 23.5,23.5 C 119.833,23.5 216.167,23.5 312.5,23.5C 312.5,24.1667 312.5,24.8333 312.5,25.5C 312.167,25.5 311.833,25.5 311.5,25.5C 216.001,24.5006 120.335,24.1673 24.5,24.5C 24.8308,47.3395 24.4975,70.0061 23.5,92.5C 23.5,69.5 23.5,46.5 23.5,23.5 Z"/></g>
<g><path style="opacity:0.948" fill="#b2bcc2" d="M 312.5,23.5 C 312.5,23.1667 312.5,22.8333 312.5,22.5C 313.833,70.662 314.5,119.162 314.5,168C 314.5,216.668 314.167,265.168 313.5,313.5C 313.833,216.665 313.499,119.999 312.5,23.5 Z"/></g>
<g><path style="opacity:0.071" fill="#324f66" d="M 311.5,25.5 C 311.833,25.5 312.167,25.5 312.5,25.5C 313.164,121.506 312.498,217.172 310.5,312.5C 311.497,216.904 311.831,121.237 311.5,25.5 Z"/></g>
<g><path style="opacity:0.223" fill="#4d6477" d="M 23.5,23.5 C 23.5,46.5 23.5,69.5 23.5,92.5C 23.5265,165.341 23.5265,238.341 23.5,311.5C 23.5,311.833 23.5,312.167 23.5,312.5C 22.1667,216.167 22.1667,119.833 23.5,23.5 Z"/></g>
<g><path style="opacity:0.221" fill="#4a6172" d="M 5.5,19.5 C 5.16721,123.001 5.50054,226.335 6.5,329.5C 113.999,330.499 221.665,330.833 329.5,330.5C 329.833,330.5 330.167,330.5 330.5,330.5C 222.334,331.666 114.001,331.833 5.5,331C 4.83333,327 4.16667,323 3.5,319C 4.74872,236.401 4.74872,153.734 3.5,71C 3.43557,53.6462 4.10224,36.4796 5.5,19.5 Z"/></g>
<g><path style="opacity:0.251" fill="#4e6373" d="M 214.5,120.5 C 213.203,118.629 212.203,116.629 211.5,114.5C 210.962,112.883 210.629,111.216 210.5,109.5C 181.995,109.169 153.662,109.502 125.5,110.5C 125.5,111.167 125.5,111.833 125.5,112.5C 124.274,114.942 122.941,117.276 121.5,119.5C 121.536,115.176 122.869,111.342 125.5,108C 153.5,107.333 181.5,107.333 209.5,108C 212.83,111.408 214.497,115.574 214.5,120.5 Z"/></g>
<g><path style="opacity:0.816" fill="#b6c0c6" d="M 125.5,110.5 C 153.662,109.502 181.995,109.169 210.5,109.5C 210.629,111.216 210.962,112.883 211.5,114.5C 209.896,113.713 209.229,112.38 209.5,110.5C 181.5,110.5 153.5,110.5 125.5,110.5 Z"/></g>
<g><path style="opacity:0.324" fill="#697c8a" d="M 329.5,6.5 C 329.833,6.5 330.167,6.5 330.5,6.5C 331.833,114.5 331.833,222.5 330.5,330.5C 330.167,330.5 329.833,330.5 329.5,330.5C 329.5,222.5 329.5,114.5 329.5,6.5 Z"/></g>
<g><path style="opacity:1" fill="#e9eff0" d="M 125.5,110.5 C 153.5,110.5 181.5,110.5 209.5,110.5C 209.229,112.38 209.896,113.713 211.5,114.5C 211.336,117.187 211.503,119.854 212,122.5C 212.333,122.167 212.667,121.833 213,121.5C 212.97,124.361 213.803,126.695 215.5,128.5C 216.167,131.167 216.833,133.833 217.5,136.5C 217.89,139.839 218.39,143.173 219,146.5C 219.383,147.056 219.883,147.389 220.5,147.5C 221.007,150.431 222.007,153.098 223.5,155.5C 223.5,155.833 223.5,156.167 223.5,156.5C 226.833,157.167 230.167,157.833 233.5,158.5C 233.5,176.5 233.5,194.5 233.5,212.5C 229.958,212.187 226.625,212.521 223.5,213.5C 223.167,213.5 222.833,213.5 222.5,213.5C 221.681,216.305 221.181,219.305 221,222.5C 220.612,223.428 219.945,224.095 219,224.5C 212.212,225.445 205.379,225.778 198.5,225.5C 197.996,220.942 197.329,216.442 196.5,212C 177.167,211.333 157.833,211.333 138.5,212C 137.299,212.903 136.465,214.069 136,215.5C 135.944,218.78 135.111,221.78 133.5,224.5C 127.202,225.496 120.868,225.83 114.5,225.5C 114.283,221.295 113.617,217.295 112.5,213.5C 109.038,212.518 105.371,212.185 101.5,212.5C 101.5,194.5 101.5,176.5 101.5,158.5C 105.167,158.5 108.833,158.5 112.5,158.5C 112.5,157.5 112.5,156.5 112.5,155.5C 114.835,151.678 116.168,147.344 116.5,142.5C 118.062,140.628 119.062,138.295 119.5,135.5C 120.48,132.914 120.813,130.247 120.5,127.5C 122.09,125.525 123.257,123.192 124,120.5C 124.395,117.793 124.895,115.127 125.5,112.5C 125.5,111.833 125.5,111.167 125.5,110.5 Z"/></g>
<g><path style="opacity:1" fill="#b9c3c8" d="M 211.5,114.5 C 212.203,116.629 213.203,118.629 214.5,120.5C 214.401,123.237 214.735,125.904 215.5,128.5C 213.803,126.695 212.97,124.361 213,121.5C 212.667,121.833 212.333,122.167 212,122.5C 211.503,119.854 211.336,117.187 211.5,114.5 Z"/></g>
<g><path style="opacity:0.329" fill="#586d7d" d="M 121.5,119.5 C 121.599,122.237 121.265,124.904 120.5,127.5C 119.503,131.46 118.503,135.46 117.5,139.5C 116.833,139.833 116.167,140.167 115.5,140.5C 117.055,133.267 119.055,126.267 121.5,119.5 Z"/></g>
<g><path style="opacity:1" fill="#c8d0d5" d="M 125.5,112.5 C 124.895,115.127 124.395,117.793 124,120.5C 123.257,123.192 122.09,125.525 120.5,127.5C 121.265,124.904 121.599,122.237 121.5,119.5C 122.941,117.276 124.274,114.942 125.5,112.5 Z"/></g>
<g><path style="opacity:0.357" fill="#566a7a" d="M 214.5,120.5 C 216.612,126.607 218.278,132.941 219.5,139.5C 218.833,138.5 218.167,137.5 217.5,136.5C 216.833,133.833 216.167,131.167 215.5,128.5C 214.735,125.904 214.401,123.237 214.5,120.5 Z"/></g>
<g><path style="opacity:1" fill="#c5ced3" d="M 120.5,127.5 C 120.813,130.247 120.48,132.914 119.5,135.5C 119.062,138.295 118.062,140.628 116.5,142.5C 117.11,141.609 117.443,140.609 117.5,139.5C 118.503,135.46 119.503,131.46 120.5,127.5 Z"/></g>
<g><path style="opacity:0.929" fill="#9dabb3" d="M 217.5,136.5 C 218.167,137.5 218.833,138.5 219.5,139.5C 220.434,140.568 220.768,141.901 220.5,143.5C 220.5,144.833 220.5,146.167 220.5,147.5C 219.883,147.389 219.383,147.056 219,146.5C 218.39,143.173 217.89,139.839 217.5,136.5 Z"/></g>
<g><path style="opacity:0.329" fill="#495e6f" d="M 115.5,141.5 C 115.946,144.01 115.28,146.01 113.5,147.5C 113.875,145.302 114.542,143.302 115.5,141.5 Z"/></g>
<g><path style="opacity:1" fill="#a5b1b9" d="M 117.5,139.5 C 117.443,140.609 117.11,141.609 116.5,142.5C 116.168,147.344 114.835,151.678 112.5,155.5C 113.219,153.236 113.552,150.903 113.5,148.5C 113.5,148.167 113.5,147.833 113.5,147.5C 115.28,146.01 115.946,144.01 115.5,141.5C 115.5,141.167 115.5,140.833 115.5,140.5C 116.167,140.167 116.833,139.833 117.5,139.5 Z"/></g>
<g><path style="opacity:0.188" fill="#556a7b" d="M 220.5,143.5 C 222.101,146.55 223.101,149.884 223.5,153.5C 223.5,154.167 223.5,154.833 223.5,155.5C 222.007,153.098 221.007,150.431 220.5,147.5C 220.5,146.167 220.5,144.833 220.5,143.5 Z"/></g>
<g><path style="opacity:0.306" fill="#455b6e" d="M 113.5,148.5 C 113.552,150.903 113.219,153.236 112.5,155.5C 112.167,155.5 111.833,155.5 111.5,155.5C 111.721,152.933 112.388,150.599 113.5,148.5 Z"/></g>
<g><path style="opacity:0.005" fill="#28445b" d="M 223.5,153.5 C 226.366,154.965 229.366,155.965 232.5,156.5C 229.5,156.5 226.5,156.5 223.5,156.5C 223.5,156.167 223.5,155.833 223.5,155.5C 223.5,154.833 223.5,154.167 223.5,153.5 Z"/></g>
<g><path style="opacity:0.154" fill="#546a7b" d="M 111.5,155.5 C 108.452,157.119 105.119,158.119 101.5,158.5C 101.5,176.5 101.5,194.5 101.5,212.5C 101.5,212.833 101.5,213.167 101.5,213.5C 100.172,194.662 100.172,175.662 101.5,156.5C 104.88,155.93 108.213,155.597 111.5,155.5 Z"/></g>
<g><path style="opacity:0.68" fill="#a4b0b8" d="M 111.5,155.5 C 111.833,155.5 112.167,155.5 112.5,155.5C 112.5,156.5 112.5,157.5 112.5,158.5C 108.833,158.5 105.167,158.5 101.5,158.5C 105.119,158.119 108.452,157.119 111.5,155.5 Z"/></g>
<g><path style="opacity:0.612" fill="#a4b3bc" d="M 233.5,158.5 C 234.497,176.659 234.83,194.992 234.5,213.5C 230.833,213.5 227.167,213.5 223.5,213.5C 226.625,212.521 229.958,212.187 233.5,212.5C 233.5,194.5 233.5,176.5 233.5,158.5 Z"/></g>
<g><path style="opacity:0.084" fill="#355269" d="M 223.5,156.5 C 226.5,156.5 229.5,156.5 232.5,156.5C 233.496,156.414 234.329,156.748 235,157.5C 235.829,176.338 235.662,195.005 234.5,213.5C 234.83,194.992 234.497,176.659 233.5,158.5C 230.167,157.833 226.833,157.167 223.5,156.5 Z"/></g>
<g><path style="opacity:0.998" fill="#bcc5ca" d="M 7.5,12.5 C 7.5,118.167 7.5,223.833 7.5,329.5C 7.16667,329.5 6.83333,329.5 6.5,329.5C 5.50054,226.335 5.16721,123.001 5.5,19.5C 4.98983,16.6122 5.65649,14.2789 7.5,12.5 Z"/></g>
<g><path style="opacity:0.873" fill="#e0e7e9" d="M 222.5,213.5 C 222.5,218.167 222.5,222.833 222.5,227.5C 213.833,227.5 205.167,227.5 196.5,227.5C 196.819,222.637 196.486,217.97 195.5,213.5C 177.007,212.503 158.341,212.17 139.5,212.5C 139.5,217.5 139.5,222.5 139.5,227.5C 130.5,227.5 121.5,227.5 112.5,227.5C 112.5,222.833 112.5,218.167 112.5,213.5C 113.617,217.295 114.283,221.295 114.5,225.5C 120.868,225.83 127.202,225.496 133.5,224.5C 135.111,221.78 135.944,218.78 136,215.5C 136.465,214.069 137.299,212.903 138.5,212C 157.833,211.333 177.167,211.333 196.5,212C 197.329,216.442 197.996,220.942 198.5,225.5C 205.379,225.778 212.212,225.445 219,224.5C 219.945,224.095 220.612,223.428 221,222.5C 221.181,219.305 221.681,216.305 222.5,213.5 Z"/></g>
<g><path style="opacity:0.079" fill="#354f63" d="M 101.5,213.5 C 105.329,212.931 108.663,213.598 111.5,215.5C 108.059,214.903 104.725,214.237 101.5,213.5 Z"/></g>
<g><path style="opacity:0.046" fill="#354e63" d="M 195.5,213.5 C 195.5,218.167 195.5,222.833 195.5,227.5C 194.515,223.366 194.182,219.032 194.5,214.5C 176.833,214.5 159.167,214.5 141.5,214.5C 141.813,218.042 141.479,221.375 140.5,224.5C 140.5,220.833 140.5,217.167 140.5,213.5C 158.833,213.5 177.167,213.5 195.5,213.5 Z"/></g>
<g><path style="opacity:0.086" fill="#385165" d="M 223.5,213.5 C 227.167,213.5 230.833,213.5 234.5,213.5C 231.375,214.479 228.042,214.813 224.5,214.5C 224.818,219.032 224.485,223.366 223.5,227.5C 223.5,222.833 223.5,218.167 223.5,213.5 Z"/></g>
<g><path style="opacity:0.343" fill="#8092a0" d="M 101.5,213.5 C 101.5,213.167 101.5,212.833 101.5,212.5C 105.371,212.185 109.038,212.518 112.5,213.5C 112.5,218.167 112.5,222.833 112.5,227.5C 121.5,227.5 130.5,227.5 139.5,227.5C 139.5,222.5 139.5,217.5 139.5,212.5C 158.341,212.17 177.007,212.503 195.5,213.5C 177.167,213.5 158.833,213.5 140.5,213.5C 140.5,217.167 140.5,220.833 140.5,224.5C 140.773,226.451 140.107,227.951 138.5,229C 129.518,228.835 120.518,228.668 111.5,228.5C 111.27,224.016 111.27,219.683 111.5,215.5C 108.663,213.598 105.329,212.931 101.5,213.5 Z"/></g>
<g><path style="opacity:0.331" fill="#8fa1ac" d="M 195.5,213.5 C 196.486,217.97 196.819,222.637 196.5,227.5C 205.167,227.5 213.833,227.5 222.5,227.5C 222.5,222.833 222.5,218.167 222.5,213.5C 222.833,213.5 223.167,213.5 223.5,213.5C 223.5,218.167 223.5,222.833 223.5,227.5C 214.167,228.833 204.833,228.833 195.5,227.5C 195.5,222.833 195.5,218.167 195.5,213.5 Z"/></g>
<g><path style="opacity:0.124" fill="#597082" d="M 312.5,23.5 C 313.499,119.999 313.833,216.665 313.5,313.5C 313.167,313.5 312.833,313.5 312.5,313.5C 216.167,313.5 119.833,313.5 23.5,313.5C 23.5,313.167 23.5,312.833 23.5,312.5C 23.5,312.167 23.5,311.833 23.5,311.5C 119.096,312.497 214.763,312.831 310.5,312.5C 312.498,217.172 313.164,121.506 312.5,25.5C 312.5,24.8333 312.5,24.1667 312.5,23.5 Z"/></g>
<g><path style="opacity:1" fill="#d3dce0" d="M 21.5,313.5 C 22.1667,313.5 22.8333,313.5 23.5,313.5C 119.833,313.5 216.167,313.5 312.5,313.5C 264.338,314.833 215.838,315.5 167,315.5C 118.162,315.5 69.662,314.833 21.5,313.5 Z"/></g>
<g><path style="opacity:0.465" fill="#9facb3" d="M 328.5,6.5 C 328.833,6.5 329.167,6.5 329.5,6.5C 329.5,114.5 329.5,222.5 329.5,330.5C 221.665,330.833 113.999,330.499 6.5,329.5C 6.83333,329.5 7.16667,329.5 7.5,329.5C 114.5,329.5 221.5,329.5 328.5,329.5C 328.5,221.833 328.5,114.167 328.5,6.5 Z"/></g>
</svg>
